<svg width="195" height="42" viewBox="0 0 195 42" fill="none" xmlns="http://www.w3.org/2000/svg">
<g clip-path="url(#clip0_925_21)">
<rect width="41" height="41" rx="13.6133" fill="#5865F2"/>
<path d="M30.8232 11.0141C28.9245 10.1415 26.8885 9.49865 24.7597 9.13045C24.7209 9.12334 24.6822 9.1411 24.6622 9.17662C24.4004 9.64309 24.1103 10.2516 23.9072 10.7299C21.6176 10.3866 19.3397 10.3866 17.097 10.7299C16.8938 10.241 16.5933 9.64309 16.3302 9.17662C16.3103 9.14229 16.2715 9.12453 16.2328 9.13045C14.1052 9.49748 12.0691 10.1404 10.1693 11.0141C10.1529 11.0212 10.1388 11.0331 10.1294 11.0484C6.26752 16.8273 5.20958 22.4641 5.72857 28.031C5.73092 28.0582 5.74618 28.0843 5.76732 28.1008C8.31529 29.975 10.7834 31.1128 13.2057 31.8669C13.2445 31.8788 13.2856 31.8646 13.3103 31.8326C13.8833 31.0489 14.394 30.2225 14.832 29.3534C14.8578 29.3025 14.8332 29.2422 14.7803 29.222C13.9702 28.9142 13.1987 28.5389 12.4566 28.1127C12.3979 28.0783 12.3932 27.9943 12.4472 27.954C12.6034 27.8368 12.7596 27.7148 12.9087 27.5917C12.9357 27.5692 12.9733 27.5645 13.005 27.5787C17.8802 29.8081 23.1581 29.8081 27.9758 27.5787C28.0075 27.5633 28.0451 27.5681 28.0732 27.5905C28.2224 27.7137 28.3785 27.8368 28.5359 27.954C28.5899 27.9943 28.5863 28.0783 28.5276 28.1127C27.7856 28.5472 27.0141 28.9142 26.2028 29.2208C26.1499 29.241 26.1264 29.3025 26.1523 29.3534C26.5996 30.2213 27.1104 31.0477 27.6728 31.8314C27.6963 31.8646 27.7386 31.8788 27.7773 31.8669C30.2114 31.1128 32.6795 29.975 35.2275 28.1008C35.2498 28.0843 35.2639 28.0594 35.2663 28.0322C35.8874 21.5962 34.2259 16.0056 30.8619 11.0496C30.8537 11.0331 30.8396 11.0212 30.8232 11.0141ZM15.56 24.6413C14.0922 24.6413 12.8829 23.2916 12.8829 21.6341C12.8829 19.9766 14.0688 18.6269 15.56 18.6269C17.0629 18.6269 18.2606 19.9884 18.2371 21.6341C18.2371 23.2916 17.0512 24.6413 15.56 24.6413ZM25.4583 24.6413C23.9906 24.6413 22.7812 23.2916 22.7812 21.6341C22.7812 19.9766 23.9671 18.6269 25.4583 18.6269C26.9613 18.6269 28.1589 19.9884 28.1355 21.6341C28.1355 23.2916 26.9613 24.6413 25.4583 24.6413Z" fill="white"/>
<rect x="10.7305" y="16.9766" width="19.5391" height="9.12891" fill="white"/>
<path d="M14.8945 20.0458L20.1429 14.7974C20.8676 14.0727 22.0425 14.0727 22.7671 14.7974C23.4918 15.522 23.4918 16.6969 22.7671 17.4216L18.8035 21.3852" stroke="#5865F2" stroke-width="0.927791" stroke-linecap="round"/>
<path d="M18.8594 21.3304L22.7683 17.4214C23.493 16.6968 24.6679 16.6968 25.3926 17.4214L25.4198 17.4487C26.1445 18.1734 26.1445 19.3483 25.4198 20.0729L20.6732 24.8196C20.4316 25.0612 20.4316 25.4528 20.6732 25.6943L21.6478 26.669" stroke="#5865F2" stroke-width="0.927791" stroke-linecap="round"/>
<path d="M21.4564 16.1094L17.5747 19.991C16.8501 20.7156 16.8501 21.8905 17.5747 22.6152C18.2994 23.3398 19.4743 23.3398 20.1989 22.6152L24.0805 18.7336" stroke="#5865F2" stroke-width="0.927791" stroke-linecap="round"/>
</g>
<path d="M60.15 12.556C61.778 12.556 63.2007 12.8787 64.418 13.524C65.6353 14.1693 66.574 15.0787 67.234 16.252C67.9087 17.4107 68.246 18.7527 68.246 20.278C68.246 21.7887 67.9087 23.1307 67.234 24.304C66.574 25.4773 65.628 26.3867 64.396 27.032C63.1787 27.6773 61.7633 28 60.15 28H54.364V12.556H60.15ZM59.908 24.744C61.3307 24.744 62.438 24.3553 63.23 23.578C64.022 22.8007 64.418 21.7007 64.418 20.278C64.418 18.8553 64.022 17.748 63.23 16.956C62.438 16.164 61.3307 15.768 59.908 15.768H58.126V24.744H59.908ZM72.2404 14.448C71.5804 14.448 71.0377 14.2573 70.6124 13.876C70.2017 13.48 69.9964 12.996 69.9964 12.424C69.9964 11.8373 70.2017 11.3533 70.6124 10.972C71.0377 10.576 71.5804 10.378 72.2404 10.378C72.8857 10.378 73.4137 10.576 73.8244 10.972C74.2497 11.3533 74.4624 11.8373 74.4624 12.424C74.4624 12.996 74.2497 13.48 73.8244 13.876C73.4137 14.2573 72.8857 14.448 72.2404 14.448ZM74.1104 15.724V28H70.3484V15.724H74.1104ZM81.8307 28.176C80.76 28.176 79.8067 27.9927 78.9707 27.626C78.1347 27.2593 77.4747 26.7607 76.9907 26.13C76.5067 25.4847 76.2353 24.766 76.1767 23.974H79.8947C79.9387 24.3993 80.1367 24.744 80.4887 25.008C80.8407 25.272 81.2733 25.404 81.7867 25.404C82.256 25.404 82.6153 25.316 82.8647 25.14C83.1287 24.9493 83.2607 24.7073 83.2607 24.414C83.2607 24.062 83.0773 23.8053 82.7107 23.644C82.344 23.468 81.75 23.2773 80.9287 23.072C80.0487 22.8667 79.3153 22.654 78.7287 22.434C78.142 22.1993 77.636 21.84 77.2107 21.356C76.7853 20.8573 76.5727 20.19 76.5727 19.354C76.5727 18.65 76.7633 18.012 77.1447 17.44C77.5407 16.8533 78.1127 16.3913 78.8607 16.054C79.6233 15.7167 80.5253 15.548 81.5667 15.548C83.1067 15.548 84.3167 15.9293 85.1967 16.692C86.0913 17.4547 86.6047 18.4667 86.7367 19.728H83.2607C83.202 19.3027 83.0113 18.9653 82.6887 18.716C82.3807 18.4667 81.97 18.342 81.4567 18.342C81.0167 18.342 80.6793 18.43 80.4447 18.606C80.21 18.7673 80.0927 18.9947 80.0927 19.288C80.0927 19.64 80.276 19.904 80.6427 20.08C81.024 20.256 81.6107 20.432 82.4027 20.608C83.312 20.8427 84.0527 21.0773 84.6247 21.312C85.1967 21.532 85.6953 21.8987 86.1207 22.412C86.5607 22.9107 86.788 23.5853 86.8027 24.436C86.8027 25.1547 86.5973 25.8 86.1867 26.372C85.7907 26.9293 85.2113 27.3693 84.4487 27.692C83.7007 28.0147 82.828 28.176 81.8307 28.176ZM88.3562 21.862C88.3562 20.586 88.6129 19.4713 89.1262 18.518C89.6542 17.5647 90.3802 16.8313 91.3042 16.318C92.2429 15.8047 93.3136 15.548 94.5162 15.548C96.0562 15.548 97.3396 15.9513 98.3662 16.758C99.4076 17.5647 100.09 18.7013 100.412 20.168H96.4082C96.0709 19.2293 95.4182 18.76 94.4502 18.76C93.7609 18.76 93.2109 19.0313 92.8002 19.574C92.3896 20.102 92.1842 20.8647 92.1842 21.862C92.1842 22.8593 92.3896 23.6293 92.8002 24.172C93.2109 24.7 93.7609 24.964 94.4502 24.964C95.4182 24.964 96.0709 24.4947 96.4082 23.556H100.412C100.09 24.9933 99.4076 26.1227 98.3662 26.944C97.3249 27.7653 96.0416 28.176 94.5162 28.176C93.3136 28.176 92.2429 27.9193 91.3042 27.406C90.3802 26.8927 89.6542 26.1593 89.1262 25.206C88.6129 24.2527 88.3562 23.138 88.3562 21.862ZM108.013 28.176C106.81 28.176 105.725 27.9193 104.757 27.406C103.803 26.8927 103.048 26.1593 102.491 25.206C101.948 24.2527 101.677 23.138 101.677 21.862C101.677 20.6007 101.955 19.4933 102.513 18.54C103.07 17.572 103.833 16.8313 104.801 16.318C105.769 15.8047 106.854 15.548 108.057 15.548C109.259 15.548 110.345 15.8047 111.313 16.318C112.281 16.8313 113.043 17.572 113.601 18.54C114.158 19.4933 114.437 20.6007 114.437 21.862C114.437 23.1233 114.151 24.238 113.579 25.206C113.021 26.1593 112.251 26.8927 111.269 27.406C110.301 27.9193 109.215 28.176 108.013 28.176ZM108.013 24.92C108.731 24.92 109.34 24.656 109.839 24.128C110.352 23.6 110.609 22.8447 110.609 21.862C110.609 20.8793 110.359 20.124 109.861 19.596C109.377 19.068 108.775 18.804 108.057 18.804C107.323 18.804 106.715 19.068 106.231 19.596C105.747 20.1093 105.505 20.8647 105.505 21.862C105.505 22.8447 105.739 23.6 106.209 24.128C106.693 24.656 107.294 24.92 108.013 24.92ZM120.194 17.77C120.634 17.0953 121.184 16.5673 121.844 16.186C122.504 15.79 123.238 15.592 124.044 15.592V19.574H123.01C122.072 19.574 121.368 19.7793 120.898 20.19C120.429 20.586 120.194 21.29 120.194 22.302V28H116.432V15.724H120.194V17.77ZM125.095 21.84C125.095 20.5787 125.329 19.4713 125.799 18.518C126.283 17.5647 126.935 16.8313 127.757 16.318C128.578 15.8047 129.495 15.548 130.507 15.548C131.313 15.548 132.047 15.7167 132.707 16.054C133.381 16.3913 133.909 16.846 134.291 17.418V11.72H138.053V28H134.291V26.24C133.939 26.8267 133.433 27.296 132.773 27.648C132.127 28 131.372 28.176 130.507 28.176C129.495 28.176 128.578 27.9193 127.757 27.406C126.935 26.878 126.283 26.1373 125.799 25.184C125.329 24.216 125.095 23.1013 125.095 21.84ZM134.291 21.862C134.291 20.9233 134.027 20.1827 133.499 19.64C132.985 19.0973 132.355 18.826 131.607 18.826C130.859 18.826 130.221 19.0973 129.693 19.64C129.179 20.168 128.923 20.9013 128.923 21.84C128.923 22.7787 129.179 23.5267 129.693 24.084C130.221 24.6267 130.859 24.898 131.607 24.898C132.355 24.898 132.985 24.6267 133.499 24.084C134.027 23.5413 134.291 22.8007 134.291 21.862ZM162.926 12.556V28H159.164V18.738L155.71 28H152.674L149.198 18.716V28H145.436V12.556H149.88L154.214 23.248L158.504 12.556H162.926ZM164.994 20.256C164.994 18.7307 165.324 17.374 165.984 16.186C166.644 14.9833 167.56 14.052 168.734 13.392C169.922 12.7173 171.264 12.38 172.76 12.38C174.593 12.38 176.162 12.864 177.468 13.832C178.773 14.8 179.646 16.12 180.086 17.792H175.95C175.642 17.1467 175.202 16.6553 174.63 16.318C174.072 15.9807 173.434 15.812 172.716 15.812C171.557 15.812 170.618 16.2153 169.9 17.022C169.181 17.8287 168.822 18.9067 168.822 20.256C168.822 21.6053 169.181 22.6833 169.9 23.49C170.618 24.2967 171.557 24.7 172.716 24.7C173.434 24.7 174.072 24.5313 174.63 24.194C175.202 23.8567 175.642 23.3653 175.95 22.72H180.086C179.646 24.392 178.773 25.712 177.468 26.68C176.162 27.6333 174.593 28.11 172.76 28.11C171.264 28.11 169.922 27.78 168.734 27.12C167.56 26.4453 166.644 25.514 165.984 24.326C165.324 23.138 164.994 21.7813 164.994 20.256ZM194.159 17.528C194.159 18.4227 193.954 19.244 193.543 19.992C193.133 20.7253 192.502 21.3193 191.651 21.774C190.801 22.2287 189.745 22.456 188.483 22.456H186.151V28H182.389V12.556H188.483C189.715 12.556 190.757 12.7687 191.607 13.194C192.458 13.6193 193.096 14.206 193.521 14.954C193.947 15.702 194.159 16.56 194.159 17.528ZM188.197 19.464C188.916 19.464 189.451 19.2953 189.803 18.958C190.155 18.6207 190.331 18.144 190.331 17.528C190.331 16.912 190.155 16.4353 189.803 16.098C189.451 15.7607 188.916 15.592 188.197 15.592H186.151V19.464H188.197Z" fill="#5865F2"/>
<defs>
<clipPath id="clip0_925_21">
<rect width="41" height="41" fill="white"/>
</clipPath>
</defs>
</svg>
